# Blender 4.5.3 LTS
# www.blender.org
mtllib coinTraingulado.mtl
o Cylinder
v 0.000000 -0.150000 -1.000000
v 0.000000 0.150000 -1.000000
v 0.195090 -0.150000 -0.980785
v 0.195090 0.150000 -0.980785
v 0.382683 -0.150000 -0.923880
v 0.382683 0.150000 -0.923880
v 0.555570 -0.150000 -0.831470
v 0.555570 0.150000 -0.831470
v 0.707107 -0.150000 -0.707107
v 0.707107 0.150000 -0.707107
v 0.831470 -0.150000 -0.555570
v 0.831470 0.150000 -0.555570
v 0.923880 -0.150000 -0.382683
v 0.923880 0.150000 -0.382683
v 0.980785 -0.150000 -0.195090
v 0.980785 0.150000 -0.195090
v 1.000000 -0.150000 0.000000
v 1.000000 0.150000 -0.000000
v 0.980785 -0.150000 0.195090
v 0.980785 0.150000 0.195090
v 0.923880 -0.150000 0.382683
v 0.923880 0.150000 0.382683
v 0.831470 -0.150000 0.555570
v 0.831470 0.150000 0.555570
v 0.707107 -0.150000 0.707107
v 0.707107 0.150000 0.707107
v 0.555570 -0.150000 0.831470
v 0.555570 0.150000 0.831470
v 0.382683 -0.150000 0.923880
v 0.382683 0.150000 0.923880
v 0.195090 -0.150000 0.980785
v 0.195090 0.150000 0.980785
v 0.000000 -0.150000 1.000000
v 0.000000 0.150000 1.000000
v -0.195091 -0.150000 0.980785
v -0.195091 0.150000 0.980785
v -0.382684 -0.150000 0.923879
v -0.382684 0.150000 0.923879
v -0.555571 -0.150000 0.831469
v -0.555571 0.150000 0.831469
v -0.707107 -0.150000 0.707106
v -0.707107 0.150000 0.707106
v -0.831470 -0.150000 0.555570
v -0.831470 0.150000 0.555570
v -0.923880 -0.150000 0.382683
v -0.923880 0.150000 0.382683
v -0.980785 -0.150000 0.195089
v -0.980785 0.150000 0.195089
v -1.000000 -0.150000 -0.000001
v -1.000000 0.150000 -0.000001
v -0.980785 -0.150000 -0.195091
v -0.980785 0.150000 -0.195091
v -0.923879 -0.150000 -0.382684
v -0.923879 0.150000 -0.382684
v -0.831469 -0.150000 -0.555571
v -0.831469 0.150000 -0.555571
v -0.707106 -0.150000 -0.707108
v -0.707106 0.150000 -0.707108
v -0.555569 -0.150000 -0.831470
v -0.555569 0.150000 -0.831470
v -0.382682 -0.150000 -0.923880
v -0.382682 0.150000 -0.923880
v -0.195089 -0.150000 -0.980786
v -0.195089 0.150000 -0.980786
vn -0.0000 1.0000 -0.0000
vn -0.0000 -1.0000 -0.0000
vn 0.0980 -0.0000 -0.9952
vn 0.2903 -0.0000 -0.9569
vn 0.4714 -0.0000 -0.8819
vn 0.6344 -0.0000 -0.7730
vn 0.7730 -0.0000 -0.6344
vn 0.8819 -0.0000 -0.4714
vn 0.9569 -0.0000 -0.2903
vn 0.9952 -0.0000 -0.0980
vn 0.9952 -0.0000 0.0980
vn 0.9569 -0.0000 0.2903
vn 0.8819 -0.0000 0.4714
vn 0.7730 -0.0000 0.6344
vn 0.6344 -0.0000 0.7730
vn 0.4714 -0.0000 0.8819
vn 0.2903 -0.0000 0.9569
vn 0.0980 -0.0000 0.9952
vn -0.0980 -0.0000 0.9952
vn -0.2903 -0.0000 0.9569
vn -0.4714 -0.0000 0.8819
vn -0.6344 -0.0000 0.7730
vn -0.7730 -0.0000 0.6344
vn -0.8819 -0.0000 0.4714
vn -0.9569 -0.0000 0.2903
vn -0.9952 -0.0000 0.0980
vn -0.9952 -0.0000 -0.0980
vn -0.9569 -0.0000 -0.2903
vn -0.8819 -0.0000 -0.4714
vn -0.7730 -0.0000 -0.6344
vn -0.6344 -0.0000 -0.7730
vn -0.4714 -0.0000 -0.8819
vn -0.0980 -0.0000 -0.9952
vn -0.2903 -0.0000 -0.9569
vt 0.025939 0.688141
vt 0.155260 0.049611
vt 0.467470 0.314099
vt 0.524347 0.600733
vt 0.708953 0.027443
vt 0.985236 0.410502
vt 0.518503 -0.870217
vt 0.460948 -0.801698
vt 0.460948 -0.870217
vt 0.518503 -0.801697
vt 0.460948 -0.733179
vt 0.518503 -0.733178
vt 0.460948 -0.664660
vt 0.518503 -0.664659
vt 0.460948 -0.596141
vt 0.518503 -0.596140
vt 0.460948 -0.527621
vt 0.518503 -0.527621
vt 0.460948 -0.459102
vt 0.518503 -0.459102
vt 0.460948 -0.390583
vt 0.518503 -0.390583
vt 0.460948 -0.322064
vt 0.518503 -0.322064
vt 0.460948 -0.253545
vt 0.518504 -0.253545
vt 0.460948 -0.185026
vt 0.518504 -0.185026
vt 0.460948 -0.116507
vt 0.518504 -0.136656
vt 0.460948 -0.024296
vt 0.460948 -0.136656
vt 0.518504 -0.024296
vt 0.460948 0.088063
vt 0.518504 0.088063
vt 0.460948 0.216253
vt 0.518504 0.216253
vt 0.460948 0.355347
vt 0.518504 0.355347
vt 0.460948 0.500000
vt 0.518504 0.500000
vt 0.460948 0.644653
vt 0.518504 0.644653
vt 0.460948 0.783747
vt 0.518504 0.783747
vt 0.460949 0.911937
vt 0.518504 0.911937
vt 0.460949 1.024296
vt 0.518504 1.024296
vt 0.460949 1.116508
vt 0.518504 1.116507
vt 0.460949 1.185026
vt 0.518504 1.185026
vt 0.460949 1.227220
vt 0.518502 -1.486888
vt 0.460948 -1.418369
vt 0.460948 -1.486889
vt 0.518503 -1.418369
vt 0.460948 -1.349850
vt 0.518503 -1.349850
vt 0.460948 -1.281331
vt 0.518503 -1.281331
vt 0.460948 -1.212812
vt 0.518503 -1.212811
vt 0.460948 -1.144293
vt 0.518503 -1.144292
vt 0.460948 -1.075774
vt 0.518503 -1.075773
vt 0.460948 -1.007255
vt 0.518503 -0.938735
vt 0.460948 -0.938736
vt 0.518503 -1.007254
vt 0.338148 0.952629
vt 0.293322 0.980439
vt 0.155260 0.952629
vt 0.246704 0.989829
vt 0.200087 0.980439
vt 0.113948 0.907467
vt 0.077738 0.846690
vt 0.048020 0.772633
vt 0.012341 0.596463
vt 0.007749 0.501120
vt 0.012341 0.405778
vt 0.025938 0.314099
vt 0.048020 0.229608
vt 0.077737 0.155550
vt 0.113948 0.094773
vt 0.200086 0.021801
vt 0.246704 0.012410
vt 0.293322 0.021801
vt 0.338148 0.049611
vt 0.379461 0.094773
vt 0.415671 0.155550
vt 0.445388 0.229607
vt 0.481068 0.405777
vt 0.467470 0.688141
vt 0.485659 0.501120
vt 0.481068 0.596463
vt 0.445388 0.772632
vt 0.415671 0.846690
vt 0.379461 0.907467
vt 0.800629 0.983792
vt 0.754791 0.993160
vt 0.708953 0.983792
vt 0.664877 0.956048
vt 0.624255 0.910995
vt 0.588650 0.850363
vt 0.559430 0.776482
vt 0.537717 0.692193
vt 0.519832 0.505618
vt 0.524347 0.410503
vt 0.537717 0.319043
vt 0.559430 0.234754
vt 0.588650 0.160873
vt 0.624255 0.100241
vt 0.664876 0.055187
vt 0.754791 0.018075
vt 0.800629 0.027442
vt 0.844706 0.055187
vt 0.885327 0.100240
vt 0.920932 0.160872
vt 0.950153 0.234753
vt 0.971865 0.319043
vt 0.989750 0.505617
vt 0.985236 0.600732
vt 0.971865 0.692192
vt 0.950153 0.776482
vt 0.920932 0.850362
vt 0.885327 0.910994
vt 0.844706 0.956048
vt 0.518504 -0.116507
vt 0.518504 1.227220
s 0
usemtl coin-texture
f 54/1/1 38/2/1 22/3/1
f 15/4/2 31/5/2 47/6/2
f 6/73/1 4/74/1 62/75/1
f 4/74/1 2/76/1 62/75/1
f 2/76/1 64/77/1 62/75/1
f 62/75/1 60/78/1 54/1/1
f 60/78/1 58/79/1 54/1/1
f 58/79/1 56/80/1 54/1/1
f 54/1/1 52/81/1 50/82/1
f 50/82/1 48/83/1 54/1/1
f 48/83/1 46/84/1 54/1/1
f 46/84/1 44/85/1 42/86/1
f 42/86/1 40/87/1 38/2/1
f 38/2/1 36/88/1 34/89/1
f 34/89/1 32/90/1 38/2/1
f 32/90/1 30/91/1 38/2/1
f 30/91/1 28/92/1 26/93/1
f 26/93/1 24/94/1 30/91/1
f 24/94/1 22/3/1 30/91/1
f 22/3/1 20/95/1 14/96/1
f 20/95/1 18/97/1 14/96/1
f 18/97/1 16/98/1 14/96/1
f 14/96/1 12/99/1 10/100/1
f 10/100/1 8/101/1 14/96/1
f 8/101/1 6/73/1 14/96/1
f 46/84/1 42/86/1 54/1/1
f 42/86/1 38/2/1 54/1/1
f 6/73/1 62/75/1 54/1/1
f 38/2/1 30/91/1 22/3/1
f 22/3/1 14/96/1 6/73/1
f 6/73/1 54/1/1 22/3/1
f 63/102/2 1/103/2 3/104/2
f 3/104/2 5/105/2 7/106/2
f 7/106/2 9/107/2 11/108/2
f 11/108/2 13/109/2 15/4/2
f 15/4/2 17/110/2 19/111/2
f 19/111/2 21/112/2 23/113/2
f 23/113/2 25/114/2 27/115/2
f 27/115/2 29/116/2 31/5/2
f 31/5/2 33/117/2 35/118/2
f 35/118/2 37/119/2 31/5/2
f 37/119/2 39/120/2 31/5/2
f 39/120/2 41/121/2 47/6/2
f 41/121/2 43/122/2 47/6/2
f 43/122/2 45/123/2 47/6/2
f 47/6/2 49/124/2 51/125/2
f 51/125/2 53/126/2 47/6/2
f 53/126/2 55/127/2 47/6/2
f 55/127/2 57/128/2 59/129/2
f 59/129/2 61/130/2 63/102/2
f 63/102/2 3/104/2 15/4/2
f 3/104/2 7/106/2 15/4/2
f 7/106/2 11/108/2 15/4/2
f 15/4/2 19/111/2 31/5/2
f 19/111/2 23/113/2 31/5/2
f 23/113/2 27/115/2 31/5/2
f 55/127/2 59/129/2 47/6/2
f 59/129/2 63/102/2 47/6/2
f 31/5/2 39/120/2 47/6/2
f 63/102/2 15/4/2 47/6/2
usemtl gold
f 2/7/3 3/8/3 1/9/3
f 4/10/4 5/11/4 3/8/4
f 6/12/5 7/13/5 5/11/5
f 8/14/6 9/15/6 7/13/6
f 10/16/7 11/17/7 9/15/7
f 12/18/8 13/19/8 11/17/8
f 14/20/9 15/21/9 13/19/9
f 16/22/10 17/23/10 15/21/10
f 18/24/11 19/25/11 17/23/11
f 20/26/12 21/27/12 19/25/12
f 22/28/13 23/29/13 21/27/13
f 24/30/14 25/31/14 23/32/14
f 26/33/15 27/34/15 25/31/15
f 28/35/16 29/36/16 27/34/16
f 30/37/17 31/38/17 29/36/17
f 32/39/18 33/40/18 31/38/18
f 34/41/19 35/42/19 33/40/19
f 36/43/20 37/44/20 35/42/20
f 38/45/21 39/46/21 37/44/21
f 40/47/22 41/48/22 39/46/22
f 42/49/23 43/50/23 41/48/23
f 44/51/24 45/52/24 43/50/24
f 46/53/25 47/54/25 45/52/25
f 48/55/26 49/56/26 47/57/26
f 50/58/27 51/59/27 49/56/27
f 52/60/28 53/61/28 51/59/28
f 54/62/29 55/63/29 53/61/29
f 56/64/30 57/65/30 55/63/30
f 58/66/31 59/67/31 57/65/31
f 60/68/32 61/69/32 59/67/32
f 64/70/33 1/9/33 63/71/33
f 62/72/34 63/71/34 61/69/34
f 2/7/3 4/10/3 3/8/3
f 4/10/4 6/12/4 5/11/4
f 6/12/5 8/14/5 7/13/5
f 8/14/6 10/16/6 9/15/6
f 10/16/7 12/18/7 11/17/7
f 12/18/8 14/20/8 13/19/8
f 14/20/9 16/22/9 15/21/9
f 16/22/10 18/24/10 17/23/10
f 18/24/11 20/26/11 19/25/11
f 20/26/12 22/28/12 21/27/12
f 22/28/13 24/131/13 23/29/13
f 24/30/14 26/33/14 25/31/14
f 26/33/15 28/35/15 27/34/15
f 28/35/16 30/37/16 29/36/16
f 30/37/17 32/39/17 31/38/17
f 32/39/18 34/41/18 33/40/18
f 34/41/19 36/43/19 35/42/19
f 36/43/20 38/45/20 37/44/20
f 38/45/21 40/47/21 39/46/21
f 40/47/22 42/49/22 41/48/22
f 42/49/23 44/51/23 43/50/23
f 44/51/24 46/53/24 45/52/24
f 46/53/25 48/132/25 47/54/25
f 48/55/26 50/58/26 49/56/26
f 50/58/27 52/60/27 51/59/27
f 52/60/28 54/62/28 53/61/28
f 54/62/29 56/64/29 55/63/29
f 56/64/30 58/66/30 57/65/30
f 58/66/31 60/68/31 59/67/31
f 60/68/32 62/72/32 61/69/32
f 64/70/33 2/7/33 1/9/33
f 62/72/34 64/70/34 63/71/34
